<svg xmlns="http://www.w3.org/2000/svg" width="120" height="120"><path d="M95.48 31.7c1.69,2.51 3.83,4.7 5.41,7.3 1.37,2.14 1.36,5.05 0.14,7.26 -1.69,-1.06 -2.8,-2.92 -3.34,-4.81 -0.29,-1.73 -0.49,-3.46 -0.73,-5.2 -0.29,-1.57 -0.85,-3.08 -1.48,-4.55zm5.69 16.16c0.55,-2.05 2.03,-3.69 2.53,-5.75 0.99,2.29 1.15,4.88 0.71,7.32 -0.47,1.52 -1.19,3.03 -2.38,4.1 -0.12,0.02 -0.34,0.06 -0.46,0.08 -2.74,-2.32 -4.57,-5.75 -4.69,-9.36 0.82,0.55 1.66,1.06 2.52,1.56 0.82,0.45 1.27,1.3 1.77,2.05zm3.72 4.17c0.66,-0.68 0.88,-1.65 1.51,-2.35 0.36,2.49 0.45,5.13 -0.63,7.47 -0.84,2.19 -2.85,3.57 -4.36,5.27 -1.58,-2.15 -3.35,-4.27 -4.11,-6.87 -0.45,-1.45 -0.44,-2.98 -0.41,-4.48 1,0.63 1.78,1.52 2.75,2.18 0.81,0.56 1.36,1.42 2.17,1.97 0.41,-0.16 0.61,-0.57 0.9,-0.87 0.65,-0.85 1.47,-1.54 2.18,-2.32zm-8.84 4.82c1.18,1.55 2.64,2.88 3.75,4.48 0.66,0.99 0.95,2.15 1.14,3.32 1.05,-1.76 2.35,-3.38 3.99,-4.62 1.01,-0.72 1.76,-1.73 2.52,-2.69 0.34,2.33 -0.15,4.73 -1.04,6.89 -1.33,2.93 -4.13,4.77 -6.85,6.26 -1.18,-2.58 -3.05,-4.88 -3.6,-7.71 -0.3,-1.97 -0.21,-3.97 0.09,-5.93zm-2.56 11.77c0.07,-2.46 1.23,-4.72 1.33,-7.19 -0.02,1.24 -0.35,2.59 0.39,3.69 1.32,2.23 3.16,4.16 4.04,6.65 1.53,-0.9 2.97,-1.96 4.54,-2.79 1.29,-0.66 2.36,-1.64 3.4,-2.63 0.1,2.73 -0.97,5.47 -2.8,7.49 -1.26,1.41 -3,2.22 -4.67,3.04 -1.02,0.47 -1.95,1.12 -2.94,1.66 -0.4,-2.13 -1.6,-3.95 -2.41,-5.92 -0.57,-1.25 -0.7,-2.65 -0.88,-4zm-2.78 9.52c-0.43,-2.51 -0.31,-5.32 1.21,-7.47 0.49,2.35 2.63,3.78 3.49,5.95 0.63,1.22 0.63,2.62 0.67,3.95 0.98,-1.16 2.21,-2.09 3.64,-2.63 2.09,-0.94 4.7,-0.95 6.25,-2.84 0,0.48 -0.03,0.98 -0.21,1.44 -0.57,1.61 -1.21,3.25 -2.36,4.55 -1.43,1.94 -3.82,2.72 -5.96,3.58 -1.67,0.59 -3.22,1.43 -4.7,2.4 -0.01,-0.92 0.03,-1.85 -0.1,-2.76 -0.43,-2.12 -1.4,-4.08 -1.93,-6.17zm-0.85 13.31c1,-1.44 1.75,-3.04 2.87,-4.38 -0.36,1.02 -0.93,1.95 -1.49,2.87 -2.3,3.89 -4.89,7.61 -7.76,11.11 -0.2,0.31 -0.71,0.66 -0.94,0.19 0.02,-0.43 0.4,-0.73 0.63,-1.06 2.45,-2.73 4.63,-5.7 6.69,-8.73zm-27.28 -75.18c2.53,0.07 4.57,1.72 6.92,2.42 2.34,1.02 3.65,3.47 6,4.52 1.98,1.69 3.16,4.12 4.18,6.47 0.35,0.78 1,1.36 1.45,2.08 1.37,2.26 1.94,4.87 2.58,7.41 0.34,-0.64 0.67,-1.28 0.99,-1.92 1.17,3.37 2.38,6.82 2.23,10.45 0.36,0.16 0.73,0.32 1.09,0.48 0.73,4.61 1.1,9.53 -0.84,13.91 1.17,-0.51 2.27,-1.15 3.39,-1.75 -0.04,2.58 -0.85,5.04 -1.49,7.51 0.5,-0.04 1,-0.08 1.5,-0.11 -1.31,4.99 -2.9,10.72 -7.57,13.61 -2.33,1.49 -4.98,0.2 -7.23,-0.73 -2.68,7.59 -6.94,14.64 -12.57,20.41 -1.37,1.31 -2.76,2.65 -4.37,3.68 -0.11,-0.25 -0.32,-0.77 -0.43,-1.02 5.34,-4.47 9.97,-9.83 13.22,-16.01 1.3,-2.37 2.34,-4.88 3.38,-7.37 -2.27,-0.58 -4.71,-1.38 -6.05,-3.44 -2.26,-3.25 -1.69,-7.39 -2.06,-11.12 -0.15,-0.86 1.03,-0.65 1.52,-0.85 -0.26,-1.7 -0.54,-3.41 -0.41,-5.14 1.06,0.45 2.09,0.95 3.12,1.45 -0.53,-1.74 -1.17,-3.47 -1.23,-5.31 -0.06,-2.13 -0.83,-4.41 0.22,-6.43 -0.57,-2.38 -1.04,-4.78 -1.34,-7.2 0.52,0.1 1.05,0.2 1.57,0.31 -0.72,-2.29 -1.94,-4.47 -1.98,-6.92 -0.66,-2.62 -2.9,-4.91 -2.51,-7.76 -0.14,-1.08 -0.76,-2.03 -1.08,-3.06 -0.52,-1.2 -0.33,-2.57 -0.82,-3.78 -0.57,-1.56 -1.13,-3.14 -1.38,-4.79zm0.73 0.66c0.51,1.99 1.28,3.92 2.33,5.68 0.7,1.21 2.17,1.48 3.33,2.09 0.36,-0.37 0.74,-0.74 1.11,-1.1 -0.37,-1.32 -0.36,-2.92 -1.51,-3.85 -1.5,-1.32 -3.29,-2.4 -5.26,-2.82zm6.76 2.67c0.08,2.31 0.91,4.55 0.61,6.89 -1.82,-1.08 -3.63,-2.22 -5.65,-2.88 0.48,1.97 1.41,3.85 2.66,5.45 1.62,1.31 3.84,1.29 5.72,2.04 0.29,-2.16 1.98,-4.21 1.21,-6.44 -1.21,-1.92 -2.74,-3.68 -4.55,-5.06zm5.56 4.65c-0.32,2.08 -0.35,4.21 -0.95,6.25 -0.44,1.33 -0.04,2.7 0.19,4.03 -0.71,-0.89 -1.28,-1.95 -2.34,-2.46 -1.98,-1.03 -4.02,-1.95 -6.13,-2.67 0.87,2.46 2.05,4.92 3.93,6.76 1.24,1.23 3.04,1.34 4.66,1.58 -1.06,-0.79 -2.08,-1.63 -3.01,-2.57 1.33,0.61 2.63,1.41 4.15,1.41 0.38,-1.29 0.74,-2.58 1.12,-3.87 -0.06,1.39 -0.05,2.78 -0.01,4.16 2.26,-1.87 2.46,-5.19 1.38,-7.75 -0.74,-1.75 -1.49,-3.62 -2.99,-4.87zm5.12 8.26c-0.91,2.04 -1.61,4.17 -2.63,6.16 -0.92,1.74 -1.01,3.99 0.31,5.56 0.72,-1.07 1.39,-2.18 2.21,-3.17 -0.25,1.42 -0.91,2.72 -1.59,3.98 0.85,-0.4 1.74,-0.82 2.31,-1.6 1.55,-1.73 1.46,-4.29 1.12,-6.44 -0.47,-1.53 -0.6,-3.27 -1.73,-4.49zm-11.79 4.38c0.55,2.02 1.36,3.99 2.52,5.74 1.14,1.68 3.11,3.03 5.23,2.72 -0.93,-0.83 -1.86,-1.65 -2.6,-2.65 1.09,0.68 2.19,1.36 3.48,1.56 -0.16,-1.6 -0.64,-3.41 -2.15,-4.26 -2.05,-1.24 -4.26,-2.21 -6.48,-3.11zm15.67 2.38c-0.93,1.86 -1.74,3.79 -2.84,5.57 -0.59,1.04 -1.33,2.02 -1.7,3.17 -0.42,1.65 -0.27,3.37 -0.14,5.04 1.42,-1.09 2.58,-2.48 3.33,-4.12 -0.17,1.82 -1.29,3.31 -1.97,4.95 2.2,-0.89 4.19,-2.69 4.52,-5.15 0.45,-3.15 0.15,-6.55 -1.2,-9.46zm-15.21 4c0.77,3.27 1.33,6.99 4.05,9.27 1.03,0.98 2.47,1.19 3.8,1.49 -1.11,-1.13 -2.13,-2.35 -2.94,-3.71 1.2,1.03 2.43,2.04 3.87,2.72 0.03,-1.36 -0.12,-2.74 -0.68,-3.98 -0.8,-1.2 -1.96,-2.08 -3.15,-2.88 -1.6,-1.05 -3.18,-2.15 -4.95,-2.91zm14.63 10.36c-1.2,1.5 -2.65,2.83 -3.6,4.51 -0.63,1.49 -0.58,3.16 -0.66,4.75 1.28,-0.61 2.41,-1.49 3.57,-2.3 -0.44,1.36 -1.51,2.34 -2.39,3.42 3,0.07 5.35,-2.3 6.13,-5.05 0.83,-3.06 1.11,-6.4 0.27,-9.49 -1.26,1.26 -2.14,2.83 -3.32,4.16zm-13.85 -2.33c0.24,3.13 0.5,6.47 2.17,9.22 1.1,1.85 3.12,2.74 5.04,3.46 -1.13,-1.5 -2.31,-3 -2.94,-4.79 1.23,1.36 2.49,2.72 4.02,3.76 0.01,-1.39 0.21,-2.81 -0.12,-4.17 -0.66,-1.73 -2.17,-2.91 -3.51,-4.1 -1.49,-1.21 -2.94,-2.5 -4.66,-3.38zm12.23 14.09c-2.34,0.81 -4.03,3.13 -3.98,5.62 1.07,-0.04 2.16,-0.14 3.21,-0.43 1.98,-0.49 4.22,-0.62 5.86,-1.94 1.22,-1.92 1.93,-4.16 2.2,-6.41 -2.5,0.9 -4.79,2.27 -7.29,3.16zm-13.84 -4.43c0.27,1.81 0.38,3.77 1.3,5.39 1.61,1.37 3.64,2.11 5.37,3.3 0.76,0.51 1.58,0.88 2.44,1.19 0.17,-1.31 0.39,-2.69 -0.09,-3.96 -0.56,-1.29 -1.88,-1.96 -3.01,-2.69 -1.98,-1.11 -3.89,-2.39 -6.01,-3.23zm-1.07 4.91c0.4,3.32 0.3,7.01 2.42,9.8 1.09,1.5 2.93,2.09 4.7,2.27 -0.97,-1.29 -2.22,-2.43 -2.53,-4.08 1.18,1.26 2.52,2.38 4.1,3.12 0.14,-1.93 0.39,-4.22 -1.16,-5.69 -2.25,-2.14 -4.97,-3.7 -7.53,-5.42zm14.83 5.92c-1.11,0.38 -2.33,0.67 -3.16,1.56 -1,1.08 -1.64,2.43 -2.23,3.76 1.85,0.37 3.71,-0.05 5.4,-0.82 -1.33,1.37 -3.18,1.9 -4.84,2.75 2.05,1.12 4.82,1.4 6.67,-0.26 2.78,-2.56 4.28,-6.16 5.5,-9.65 -2.43,0.93 -4.84,1.91 -7.34,2.66zm-51.82 -59.68c0.97,2.33 1.94,4.68 3.17,6.9 0.43,0.87 1.32,1.33 2.08,1.87 1.71,1.15 3.26,2.65 4.15,4.52 0.63,1.92 0.45,3.98 0.43,5.97 -2.65,-0.92 -5.52,-2.6 -6.27,-5.51 -0.79,-1.89 -0.5,-3.97 -0.7,-5.96 -1.04,-2.56 -2.27,-5.07 -2.86,-7.79zm10.82 1.36c0.76,1.71 1.42,3.51 1.45,5.4 0.1,1.77 -0.18,3.55 0.1,5.31 1.12,1.9 2.62,3.68 3.02,5.91 0.35,2.27 -0.65,4.42 -1.36,6.52 -1.87,-1.6 -3.19,-4.09 -3.09,-6.56 0.77,-4.18 1.2,-8.44 0.93,-12.68 -0.12,-1.36 -0.67,-2.61 -1.05,-3.9zm-14.79 11.76c1.51,1.1 2.77,2.53 4.47,3.34 2.43,1.19 4.93,2.22 7.46,3.15 2.51,0.8 3.7,3.37 4.73,5.58 -2.48,-0.2 -5.3,-0.22 -7.17,-2.12 -1.65,-1.44 -2.32,-3.55 -3.39,-5.37 -2.17,-1.33 -4.73,-2.28 -6.1,-4.58zm23.49 0.91c2.07,2.93 2.54,6.58 3.24,10.01 0.36,1.67 0.1,3.39 0.25,5.08 1.22,2.18 3.13,4.16 3.31,6.79 0.35,2.3 -0.57,4.51 -1.62,6.5 -0.23,0.01 -0.67,0.04 -0.89,0.05 -1.24,-1.76 -2.03,-3.89 -2.18,-6.04 0.94,-4.84 1.44,-9.91 0.16,-14.74 -0.29,-2.67 -1.15,-5.22 -2.27,-7.65zm-23.95 2.04c3.18,4.12 7.14,7.77 11.88,10.03 2.07,1.1 4.29,1.84 6.48,2.68 2.37,1.01 3.57,3.48 4.51,5.73 -2.05,-0.16 -4.13,-0.49 -5.99,-1.37 -2.42,-1.41 -3.45,-4.09 -4.84,-6.35 -2.17,-1.4 -4.52,-2.53 -6.53,-4.19 -2.42,-1.62 -4.04,-4.09 -5.51,-6.53zm21.32 4.67c0.37,1.32 0.21,2.7 0.29,4.05 0.06,-1.13 0.09,-2.25 0.13,-3.37 1.72,0.49 2.32,2.41 3.07,3.84 1.46,2.73 0.51,6.19 -1.37,8.47 -1.23,-1.97 -2.72,-4.08 -2.47,-6.53 0.16,-2.15 0.2,-4.31 0.35,-6.46zm-16.04 5.07c2.46,2.44 4.93,4.92 7.9,6.73 1.94,1.15 3.91,2.24 5.93,3.24 1.94,0.96 4.29,1.29 5.79,2.98 1.31,1.25 1.98,2.97 2.37,4.71 -3.18,-0.11 -6.62,-1.27 -8.27,-4.18 -1.29,-1.55 -1.35,-4.15 -3.44,-4.93 -4.07,-1.94 -7.55,-4.97 -10.28,-8.55zm29.4 4.27c3.11,5.74 3.57,12.64 2.55,18.99 -0.19,1.41 0.8,2.58 1.11,3.9 0.43,1.84 1.13,3.78 0.51,5.67 -0.59,2.63 -2.63,4.66 -4.84,6.07 -0.17,-2.03 -0.5,-4.08 -0.24,-6.12 0.59,-2.97 2.59,-5.49 2.9,-8.55 1.41,-6.64 0.6,-13.71 -1.99,-19.96zm-25.28 3.32c1.6,1.47 2.85,3.29 4.56,4.66 2.76,2.49 5.95,4.43 9.09,6.4 2.1,1.33 4.78,1.83 6.41,3.85 1.29,1.5 1.6,3.53 1.96,5.42 -2.03,-0.61 -4.14,-1.22 -5.88,-2.48 -2.23,-1.8 -2.9,-4.7 -4.01,-7.19 -4.66,-2.76 -9.09,-6.1 -12.13,-10.66zm22.75 6.05c0.21,-0.05 0.64,-0.16 0.85,-0.21 1.52,2.64 3.06,5.65 2.51,8.8 -0.55,1.99 -1.58,3.85 -2.95,5.39 -1.66,-2.67 -2.49,-6.09 -1.38,-9.12 0.55,-1.57 0.59,-3.25 0.97,-4.86zm-8.41 12.52c1.72,0.82 3.11,2.14 4.65,3.24 1.38,1.03 2.98,1.89 3.9,3.4 0.97,1.88 1.21,4.04 0.94,6.12 -1.78,-1 -3.55,-2.09 -4.98,-3.56 -1.83,-2.09 -2.36,-4.93 -2.62,-7.61 -0.68,-0.47 -1.35,-0.97 -1.89,-1.59zm15.36 9.17c1.61,2.36 1.1,5.4 0.4,7.99 -0.74,3.06 -3.78,4.85 -6.58,5.75 0.42,-2.51 0.46,-5.23 2.07,-7.34 1.51,-2.04 3.15,-4.01 4.11,-6.4zm-11.43 1.13c2.15,2.16 5.25,4.32 5.16,7.71 0.09,1.55 -0.18,3.11 -0.78,4.55 -2.35,-2.01 -4.73,-4.72 -4.64,-8.01 -0.08,-1.43 0.03,-2.85 0.26,-4.25zm3.64 14.65c0.26,-0.6 0.4,-1.41 1.18,-1.51 -2.2,7.99 -7.36,14.89 -13.45,20.37 -0.16,-0.27 -0.48,-0.81 -0.64,-1.08 1.58,-1.98 3.57,-3.57 5.22,-5.48 3.19,-3.65 6.08,-7.69 7.69,-12.3zm-46.63 -37.25c1.61,-1.01 3.48,-1.38 5.3,-1.83 2.22,-0.39 4.66,-0.35 6.67,0.78 0.72,0.36 1.22,1.01 1.65,1.67 -1.09,-0.54 -2.11,-1.3 -3.36,-1.44 -2.07,-0.31 -4.27,-0.23 -6.22,0.6 1.43,0.48 2.88,0.9 4.24,1.55 1.03,0.5 2.17,0.62 3.28,0.81 -1.54,0.31 -3.14,0.09 -4.57,-0.53 -1.81,-0.78 -3.77,-1.2 -5.73,-1.33 -0.43,-0.03 -0.85,-0.13 -1.26,-0.28zm9.75 -2.91c1.53,-0.26 3.08,0.05 4.58,0.33 2.15,0.55 4.36,1.35 5.87,3.04 0.78,1.02 1.42,2.28 1.23,3.59 -0.54,-1.03 -0.9,-2.23 -1.86,-2.97 -1.73,-1.5 -3.98,-2.21 -6.19,-2.65 0.86,1.03 1.86,1.94 2.64,3.03 0.62,0.86 1.45,1.52 2.18,2.27 -1.81,-0.51 -3.04,-2.01 -4.18,-3.4 -1.2,-1.37 -2.97,-2.01 -4.27,-3.24zm-10.59 6.81c2.19,-1.66 5.27,-2.84 7.9,-1.46 -1.76,-0.13 -3.6,0.02 -5.17,0.87 -1.19,0.79 -2.46,1.54 -3.26,2.75 1.41,-0.04 2.79,-0.35 4.17,-0.62 1.62,-0.33 3.06,-1.16 4.57,-1.79 -1,0.94 -2.1,1.81 -3.34,2.39 -2.29,0.78 -4.71,1.08 -7.06,1.66 -0.47,0.14 -0.95,0.13 -1.43,0.1 0.81,-1.62 2.26,-2.76 3.62,-3.9zm5.51 3.7c1.09,-1.25 2.17,-2.53 3.43,-3.61 0.94,-0.83 2.26,-0.76 3.44,-0.74 -0.96,0.41 -2.14,0.38 -2.89,1.18 -0.92,0.9 -2.07,1.72 -2.53,2.95 0.84,-0.19 1.67,-0.39 2.52,-0.54 1.44,-0.28 2.74,-0.99 4.11,-1.49 -0.33,0.66 -0.9,1.16 -1.54,1.5 -2.31,1.37 -5.02,1.61 -7.55,2.35 0.12,-0.64 0.6,-1.12 1.01,-1.6zm14.87 -8.9c0.96,-0.04 1.76,0.54 2.57,0.96 2.51,1.45 4.94,3.45 5.93,6.27 0.41,1.08 0.29,2.31 -0.22,3.34 0.08,-3.39 -2.44,-6.21 -5.21,-7.84 0.27,1.21 0.85,2.32 1.08,3.54 0.23,1.15 0.81,2.18 1.43,3.17 -0.88,-0.68 -1.63,-1.53 -2,-2.59 -0.59,-1.63 -1.17,-3.27 -2.1,-4.74 -0.46,-0.73 -1.02,-1.38 -1.48,-2.11zm-7.03 7.48c1.02,-0.83 2.08,-1.72 3.4,-2.03 0.88,-0.2 1.75,0.13 2.53,0.53 -0.72,-0.05 -1.46,-0.22 -2.17,-0.05 -1.45,0.51 -2.67,1.5 -3.75,2.57 2.47,0.15 5.04,0.41 7.38,-0.53 -0.62,0.59 -1.4,0.97 -2.15,1.38 0.09,0.05 0.28,0.15 0.37,0.19 1.36,-0.32 2.7,-0.99 4.13,-0.81 0.89,0.16 1.64,0.68 2.35,1.21 -2.03,-0.94 -4.36,-0.49 -6.32,0.39 1.16,0.61 2.39,1.09 3.6,1.6 1.09,0.46 2.28,0.51 3.42,0.75 -1.88,0.71 -3.93,0.26 -5.7,-0.52 -1.29,-0.59 -2.77,-0.83 -3.91,-1.7 0.44,-0.26 0.89,-0.52 1.32,-0.8 -2.27,-0.16 -4.59,0.39 -6.86,-0.02 0.68,-0.82 1.51,-1.52 2.36,-2.16zm16.3 1.05c-0.09,-1.48 -0.97,-2.82 -0.83,-4.32 1.42,1.06 2.57,2.44 3.53,3.92 1.41,1.9 2.44,4.22 2.34,6.63 -0.03,0.98 -0.42,1.94 -1.11,2.65 0.26,-1.39 0.47,-2.86 -0.05,-4.22 -0.43,-2.04 -1.79,-3.68 -2.88,-5.39 -0.17,1.48 0.08,2.98 -0.08,4.47 -0.16,1.14 0.31,2.21 0.56,3.29 -0.62,-0.91 -1.26,-1.88 -1.35,-3 -0.09,-1.35 0.08,-2.69 -0.13,-4.03zm-8.93 5.09c1.22,-0.44 2.53,-0.14 3.8,-0.1 1.45,0.11 3.04,0.03 4.28,0.95 0.52,0.31 0.82,0.86 1.11,1.37 -1.7,-1.39 -4.02,-1.56 -6.13,-1.46 0.91,1.3 2.2,2.25 3.45,3.2 0.9,0.73 2.06,0.97 3.05,1.55 -1.1,0.13 -2.16,-0.23 -3.25,-0.35 1.43,1.06 3.34,1.14 4.78,2.19 0.97,0.63 1.42,1.76 1.85,2.79 -0.81,-0.68 -1.27,-1.75 -2.28,-2.17 -1.23,-0.58 -2.5,-1.07 -3.81,-1.46 1.28,2.57 2.94,5.11 5.55,6.49 -2.32,-0.18 -4.14,-1.9 -5.35,-3.75 -1.02,-1.36 -1.89,-2.81 -2.72,-4.29 0.72,-0.18 1.38,0.2 2.06,0.39 -0.23,-0.75 -1.13,-0.91 -1.66,-1.37 -1.66,-1.22 -3.2,-2.61 -4.73,-3.98zm14.46 0.36c0.04,-0.69 -0.13,-1.48 0.39,-2.04 1.59,2.82 2.95,5.94 2.98,9.23 -0.01,1.67 -0.47,3.62 -2.04,4.5 0.34,-0.89 0.81,-1.74 0.92,-2.7 0.3,-2.44 -0.37,-4.87 -1.42,-7.06 -0.41,1.5 -0.75,3.02 -1.25,4.5 -0.41,1.04 -0.12,2.15 -0.25,3.22 -0.49,-1.41 -0.75,-2.97 -0.3,-4.43 0.52,-1.69 0.96,-3.44 0.97,-5.22zm-7.17 11.23c0.01,-0.14 0.02,-0.44 0.02,-0.58 1.18,0.53 2.2,1.36 3.28,2.06 0.84,0.6 1.75,1.11 2.54,1.77 0.85,0.91 1.28,2.16 1.32,3.39 -0.49,-0.95 -0.83,-2.07 -1.76,-2.7 -1.12,-0.81 -2.23,-1.66 -3.47,-2.27 0.62,1.82 1.27,3.65 2.2,5.34 0.47,0.87 1.26,1.47 1.93,2.17 -1.66,-0.44 -2.95,-1.75 -3.65,-3.29 -0.91,-1.92 -1.78,-3.87 -2.41,-5.89zm9.86 0.14c0.69,-1.52 1.01,-3.17 1.69,-4.69 0.88,2.01 1.14,4.22 1.29,6.39 0.12,2.26 -0.26,4.77 -1.89,6.48 -0.41,0.48 -1.05,0.68 -1.61,0.93 2.68,-2.42 2.58,-6.41 1.97,-9.68 -0.64,0.76 -0.99,1.7 -1.47,2.56 -0.45,0.83 -1.05,1.61 -1.28,2.54 -0.17,0.67 -0.24,1.34 -0.35,2.01 -0.33,-0.96 -0.23,-1.98 -0.02,-2.95 0.26,-1.32 1.21,-2.35 1.67,-3.59zm-2.3 13.76c0.14,-0.91 -0.02,-1.86 0.35,-2.71 0.08,0.3 0.13,0.6 0.15,0.91 -0.2,5.79 -1.7,11.68 -5.03,16.49 -0.24,-0.12 -0.49,-0.24 -0.73,-0.36 3.08,-4.14 4.71,-9.24 5.26,-14.33z"/></svg>