<svg xmlns="http://www.w3.org/2000/svg" width="120" height="120"><path d="M51.92 89.18c-4.31 1.06-10.79 6.88-9.79 11.55 1.11 6.67 17.26 3.08 21.17.57.78-.52 1.65-1.32 1.47-2.36-.58-3.29-9.62-10.39-12.85-9.76zm-39.38-9.14c-6.24 16.52 12.61 24.5 26.19 23.78-4.21-9.28 8.52-21.57 17.07-18.35-2.05-11.91-36.57-23.79-43.26-5.43zM4.17 45.7C-1.9 58.76-1.77 74.15 7.4 85.81c-.09-7.9 4.11-14.86 11.47-18.02 10.92-4.77 25.41 1.32 34.8 7.09 1.04-.62 1.81-1.57 2.28-2.67-9.2-19.46-29.17-37.92-51.78-26.51zm105.67-4.05c-4.03 3.73-6.64 10.45-7.42 15.82 3.49 1.82 16.68 5.01 17.53-.49.69-5.22-6.34-12.54-10.11-15.33zM83.87 58.9c4.71 1.23 9.81.84 14.27-1.11.64-7.27 4.34-16.06 10.34-20.44.4-.23.84-.86.28-1.18-3.36-2.14-7.17-3.57-11.08-4.33C85.46 38 86.62 47.83 83.87 58.9zM57.24 20.75c7.65 11.09 14.56 29.6 11.85 43.14 18.59 4.83 4.28-23.19 25.47-35.21-7.5-9.75-26.5-10.19-37.32-7.93zM4.22 41c24.71-10.12 44.86 7.2 55.23 28.56 14.58-3.46.11-43.44-10.5-51.43C34.73 7.18 4.82 32.78 4.22 41zm39.35-20.99c2.54.81 1.27 4.89-1.38 4.01-7.29-2.06-15.27 5.07-20.42 9.27-2.05 1.69-5.04-1.68-2.34-3.59 6.33-5.26 15.3-12.56 24.14-9.69z"/></svg>