<svg xmlns="http://www.w3.org/2000/svg" width="100" height="100" viewBox="0 0 100 100"><path fill="#fff" d="M40.46 25.12c1.59,0.5 0.79,3.06 -0.87,2.51 -4.57,-1.29 -9.57,3.18 -12.8,5.81 -1.28,1.06 -3.16,-1.05 -1.46,-2.25 3.96,-3.3 9.59,-7.88 15.13,-6.07zm9.54 -25.12c27.61,0 50,22.39 50,50 0,27.61 -22.39,50 -50,50 -27.61,0 -50,-22.39 -50,-50 0,-27.61 22.39,-50 50,-50zm-2.89 23.28c8.1,-1.95 23.5,-1.79 28.08,6.7 2.76,0.57 10.54,2.64 8.71,6.79 2.41,1.88 4.47,4.21 5.91,6.9 0.85,1.65 1.53,3.55 1.11,5.43 -0.3,1.4 -1.46,2.48 -2.77,2.99 -3.86,1.43 -8.33,1.01 -11.89,-1.04 -3.58,1.49 -7.7,2.22 -11.46,0.95 -1.96,4 -5.28,4.21 -9.21,3.16 -0.88,1.94 -2.76,3.36 -4.87,3.67 -0.39,0.99 -1.05,1.87 -1.9,2.51 1.49,1.8 2.22,4.17 2.1,6.5 2.29,1.54 6.1,4.46 5.45,7.65 -0.97,4.96 -11.46,5.57 -15.22,4.98 -0.53,-0.06 -1.01,-0.44 -1.56,-0.34 -6.94,0.89 -15.96,-0.53 -19.85,-7.06 -0.33,-0.48 -0.48,-1.07 -0.91,-1.48 -9.05,-8.22 -10.49,-20.75 -5.47,-31.58 -1.89,-7.62 21.85,-28.9 33.75,-16.73zm-31.32 15c15.49,-6.35 28.12,4.51 34.62,17.9 9.15,-2.17 0.08,-27.24 -6.58,-32.24 -8.91,-6.87 -27.66,9.18 -28.04,14.34zm33.24 -12.7c4.8,6.95 9.13,18.56 7.43,27.05 11.65,3.02 2.68,-14.54 15.97,-22.08 -4.7,-6.11 -16.62,-6.39 -23.4,-4.97zm16.7 23.92c2.95,0.77 6.15,0.52 8.94,-0.7 0.4,-4.55 2.72,-10.06 6.48,-12.81 0.25,-0.15 0.53,-0.54 0.18,-0.74 -2.11,-1.35 -4.49,-2.24 -6.95,-2.71 -7.66,3.86 -6.93,10.02 -8.65,16.96zm16.28 -10.82c-2.53,2.34 -4.17,6.55 -4.65,9.92 2.18,1.14 10.45,3.14 10.99,-0.31 0.43,-3.27 -3.98,-7.86 -6.34,-9.61zm-66.26 2.54c-3.8,8.19 -3.72,17.84 2.03,25.15 -0.05,-4.95 2.58,-9.32 7.19,-11.3 6.85,-2.99 15.93,0.83 21.82,4.44 0.65,-0.38 1.14,-0.98 1.43,-1.67 -5.77,-12.2 -18.29,-23.77 -32.47,-16.62zm5.26 21.53c-3.92,10.36 7.9,15.36 16.41,14.91 -2.63,-5.82 5.35,-13.52 10.71,-11.5 -1.29,-7.47 -22.93,-14.92 -27.12,-3.41zm24.68 5.73c-2.7,0.66 -6.76,4.32 -6.14,7.24 0.7,4.18 10.83,1.94 13.28,0.36 0.49,-0.33 1.03,-0.83 0.92,-1.48 -0.37,-2.06 -6.03,-6.51 -8.06,-6.12zm6.3 14.93l0.8 13.62c1.47,-0.08 2.93,-0.24 4.36,-0.46l-2.17 -14.32c1.26,-0.63 2.4,-1.42 3.33,-2.5l4.3 15.66c1.42,-0.4 2.81,-0.85 4.16,-1.37l-6.69 -17.78c0.65,-3.3 -0.95,-6.16 -3.18,-8.44l-2.38 -6.32c0.45,-0.23 0.87,-0.5 1.28,-0.8l16.06 31.04c1.3,-0.68 2.56,-1.42 3.78,-2.21l-18.94 -29.57c0.2,-0.19 0.4,-0.39 0.59,-0.6 0.28,0.04 0.57,0.07 0.87,0.09l21.96 26.77c1.12,-0.93 2.2,-1.91 3.23,-2.95l-23.52 -23.81c0.73,-0.04 1.46,-0.16 2.18,-0.36l25.03 20.01c0.9,-1.14 1.75,-2.33 2.54,-3.55l-25.94 -17.08c0.67,-0.33 1.28,-0.74 1.83,-1.22l26.85 13.47c0.63,-1.3 1.21,-2.63 1.73,-4l-26.45 -10.34c0.98,0.07 1.95,0.06 2.91,-0.02 1.18,-0.1 2.36,-0.3 3.51,-0.59l21.69 5.66c0.35,-1.4 0.64,-2.82 0.86,-4.26l-7.86 -1.3c2.33,-0.74 4.26,-2.13 5.34,-4.35l3.03 0.14c0.02,-0.55 0.03,-1.11 0.03,-1.67 0,-0.89 -0.02,-1.78 -0.07,-2.67l-2.23 0.11c-0.09,-1.79 -0.66,-3.49 -1.44,-5.09l3.04 -0.5c-0.25,-1.43 -0.56,-2.84 -0.94,-4.23l-4.33 1.14c-0.96,-1.28 -2.04,-2.45 -3.21,-3.53 -0.01,-0.18 -0.03,-0.36 -0.05,-0.54l5.83 -2.29c-0.54,-1.34 -1.14,-2.65 -1.79,-3.92l-5.5 2.75c-1.04,-1.29 -2.82,-2.19 -4.28,-2.89l6.98 -4.6c-0.8,-1.19 -1.66,-2.35 -2.57,-3.46l-8.24 6.59c-0.25,-0.07 -0.5,-0.14 -0.74,-0.21 -0.7,-0.97 -1.52,-1.84 -2.45,-2.59l7.73 -7.83c-1.03,-1 -2.1,-1.96 -3.22,-2.86l-7.29 8.88c-1.21,-0.67 -2.47,-1.26 -3.76,-1.77l6.6 -10.31c-1.21,-0.76 -2.45,-1.48 -3.73,-2.13l-5.91 11.43c-1.28,-0.34 -2.61,-0.61 -3.93,-0.8l4.83 -12.83c-1.33,-0.5 -2.7,-0.94 -4.09,-1.32l-3.8 13.85c-1.27,-0.07 -2.55,-0.07 -3.82,-0.01l2.27 -14.96c-1.4,-0.21 -2.82,-0.36 -4.27,-0.44l-0.92 15.64c-1.2,0.14 -2.4,0.33 -3.59,0.56l-0.95 -16.2c-1.44,0.08 -2.87,0.23 -4.27,0.44l2.09 13.78c-1.36,-0.67 -2.83,-1.17 -4.36,-1.43l-3.09 -11.23c-1.39,0.37 -2.75,0.81 -4.08,1.31l3.65 9.7c-1.49,0.06 -2.98,0.32 -4.41,0.72l-4.25 -8.21c-1.28,0.65 -2.53,1.37 -3.73,2.13l4.67 7.29c-1.41,0.63 -2.68,1.37 -3.97,2.19l-5.15 -6.28c-1.12,0.9 -2.19,1.86 -3.22,2.86l5.41 5.47c-1.25,0.93 -2.46,1.92 -3.63,2.95l-5.48 -4.38c-0.91,1.11 -1.77,2.27 -2.57,3.46l5.28 3.48c-1.19,1.15 -2.36,2.34 -3.47,3.57l-4.61 -2.31c-0.65,1.27 -1.25,2.58 -1.79,3.92l4.09 1.61c-0.78,1.55 -1.11,3.15 -1.01,4.88l-4.84 -1.27c-0.38,1.39 -0.69,2.8 -0.94,4.23l4.7 0.77c-0.51,1.61 -0.91,3.25 -1.19,4.9l-4.14 -0.19c-0.08,1.45 -0.09,2.89 -0.04,4.34l3.78 -0.17c-0.06,1.7 0.02,3.4 0.25,5.1l-3.52 0.58c0.22,1.44 0.51,2.86 0.86,4.26l3.47 -0.91c0.46,1.65 1.07,3.25 1.8,4.79l-3.61 1.41c0.52,1.37 1.1,2.7 1.73,4l4.03 -2.02c0.96,1.24 2.21,2.81 3.12,3.95l-4.41 2.9c0.79,1.22 1.64,2.41 2.54,3.55l4.08 -3.26c0.95,1.37 2.08,2.57 3.38,3.61l-3.77 3.81c1.03,1.04 2.11,2.02 3.23,2.95l3.83 -4.67c1.48,0.74 3.07,1.3 4.67,1.71l-4.02 6.27c1.22,0.79 2.48,1.53 3.78,2.21l4.03 -7.79c1.61,0.18 3.17,0.24 4.79,0.18l-3.73 9.91c1.35,0.52 2.74,0.97 4.16,1.36l3.08 -11.2c1.37,0.22 2.83,0.29 4.22,0.26l-1.84 12.11c1.43,0.22 2.89,0.38 4.36,0.46l0.75 -12.81c1.37,-0.17 2.71,-0.43 4.03,-0.81z"/></svg>