<svg xmlns="http://www.w3.org/2000/svg" width="100" height="100" version="1.1" style="fill-rule:evenodd" viewBox="0 0 100 100"><path fill="#fff" d="M50 3.17c25.86,0 46.83,20.97 46.83,46.83 0,25.86 -20.97,46.83 -46.83,46.83 -25.86,0 -46.83,-20.97 -46.83,-46.83 0,-25.86 20.97,-46.83 46.83,-46.83zm0 -3.17c27.61,0 50,22.39 50,50 0,27.61 -22.39,50 -50,50 -27.61,0 -50,-22.39 -50,-50 0,-27.61 22.39,-50 50,-50z"/><path fill="#fff" d="M74.4 30.53c1.17,1.73 2.64,3.24 3.73,5.02 0.94,1.48 0.93,3.48 0.1,5 -1.17,-0.73 -1.93,-2.01 -2.3,-3.31 -0.2,-1.19 -0.34,-2.38 -0.5,-3.58 -0.21,-1.08 -0.59,-2.12 -1.03,-3.13zm3.92 11.12c0.38,-1.41 1.4,-2.54 1.74,-3.96 0.68,1.58 0.79,3.36 0.49,5.04 -0.32,1.04 -0.82,2.08 -1.64,2.82 -0.08,0.01 -0.23,0.04 -0.31,0.05 -1.89,-1.59 -3.14,-3.95 -3.23,-6.44 0.57,0.38 1.14,0.74 1.73,1.08 0.57,0.31 0.88,0.89 1.22,1.41zm2.56 2.87c0.45,-0.47 0.61,-1.14 1.04,-1.62 0.24,1.71 0.31,3.53 -0.43,5.14 -0.58,1.51 -1.96,2.45 -3,3.63 -1.09,-1.48 -2.31,-2.94 -2.83,-4.73 -0.31,-1 -0.31,-2.05 -0.28,-3.08 0.68,0.43 1.22,1.04 1.89,1.5 0.56,0.38 0.94,0.97 1.49,1.35 0.28,-0.11 0.42,-0.39 0.62,-0.6 0.45,-0.58 1.01,-1.06 1.5,-1.59zm-6.08 3.31c0.81,1.07 1.81,1.98 2.58,3.08 0.45,0.68 0.65,1.49 0.78,2.29 0.73,-1.21 1.62,-2.32 2.75,-3.18 0.7,-0.5 1.21,-1.19 1.73,-1.85 0.23,1.6 -0.1,3.25 -0.71,4.74 -0.92,2.01 -2.84,3.28 -4.71,4.31 -0.82,-1.78 -2.1,-3.36 -2.48,-5.31 -0.21,-1.35 -0.14,-2.73 0.06,-4.08zm-1.76 8.1c0.05,-1.69 0.85,-3.25 0.91,-4.94 -0.01,0.84 -0.23,1.77 0.27,2.53 0.91,1.54 2.18,2.87 2.78,4.58 1.05,-0.63 2.04,-1.35 3.13,-1.92 0.88,-0.46 1.61,-1.13 2.33,-1.81 0.07,1.88 -0.67,3.76 -1.93,5.15 -0.86,0.97 -2.06,1.53 -3.21,2.09 -0.7,0.33 -1.34,0.77 -2.02,1.14 -0.27,-1.46 -1.1,-2.71 -1.66,-4.07 -0.39,-0.86 -0.48,-1.82 -0.6,-2.75zm-1.91 6.55c-0.3,-1.73 -0.22,-3.66 0.83,-5.14 0.34,1.62 1.81,2.6 2.4,4.1 0.44,0.83 0.43,1.79 0.46,2.71 0.67,-0.8 1.52,-1.44 2.51,-1.81 1.43,-0.65 3.22,-0.65 4.3,-1.95 -0.01,0.33 -0.02,0.67 -0.15,0.99 -0.39,1.11 -0.83,2.24 -1.62,3.13 -0.99,1.33 -2.63,1.87 -4.11,2.46 -1.14,0.4 -2.21,0.99 -3.23,1.65 0,-0.63 0.03,-1.27 -0.07,-1.9 -0.29,-1.46 -0.96,-2.8 -1.32,-4.24zm-0.59 9.15c0.69,-0.98 1.21,-2.08 1.98,-3.01 -0.25,0.7 -0.65,1.34 -1.03,1.97 -1.58,2.68 -3.36,5.24 -5.33,7.65 -0.14,0.21 -0.49,0.45 -0.66,0.13 0.02,-0.3 0.28,-0.5 0.44,-0.73 1.68,-1.88 3.18,-3.92 4.6,-6.01zm-18.76 -51.71c1.74,0.05 3.14,1.18 4.75,1.66 1.62,0.71 2.52,2.39 4.13,3.11 1.36,1.17 2.17,2.83 2.88,4.45 0.24,0.54 0.68,0.94 1,1.43 0.94,1.56 1.33,3.35 1.77,5.1 0.23,-0.44 0.46,-0.88 0.68,-1.32 0.81,2.32 1.64,4.69 1.53,7.19 0.26,0.11 0.51,0.22 0.76,0.33 0.5,3.17 0.75,6.56 -0.58,9.57 0.8,-0.35 1.56,-0.79 2.33,-1.2 -0.03,1.77 -0.58,3.46 -1.03,5.16 0.35,-0.03 0.69,-0.06 1.04,-0.08 -0.91,3.43 -2,7.38 -5.21,9.37 -1.6,1.02 -3.42,0.14 -4.98,-0.5 -1.84,5.22 -4.77,10.07 -8.64,14.03 -0.95,0.91 -1.9,1.83 -3.01,2.54 -0.07,-0.18 -0.22,-0.53 -0.29,-0.71 3.67,-3.07 6.86,-6.75 9.09,-11.01 0.9,-1.63 1.61,-3.35 2.32,-5.07 -1.55,-0.4 -3.23,-0.95 -4.16,-2.37 -1.55,-2.23 -1.16,-5.08 -1.41,-7.65 -0.11,-0.58 0.7,-0.44 1.04,-0.58 -0.17,-1.17 -0.37,-2.35 -0.28,-3.54 0.73,0.31 1.44,0.66 2.15,1 -0.37,-1.19 -0.81,-2.39 -0.85,-3.65 -0.04,-1.47 -0.57,-3.04 0.15,-4.42 -0.39,-1.64 -0.72,-3.29 -0.92,-4.96 0.36,0.07 0.72,0.14 1.08,0.21 -0.5,-1.57 -1.34,-3.07 -1.36,-4.75 -0.46,-1.81 -1.99,-3.38 -1.73,-5.34 -0.09,-0.75 -0.52,-1.4 -0.74,-2.11 -0.36,-0.83 -0.23,-1.76 -0.56,-2.6 -0.4,-1.07 -0.78,-2.16 -0.95,-3.29zm0.5 0.45c0.35,1.37 0.88,2.7 1.6,3.91 0.48,0.83 1.5,1.02 2.29,1.44 0.25,-0.26 0.51,-0.51 0.77,-0.76 -0.26,-0.91 -0.25,-2.01 -1.05,-2.65 -1.03,-0.91 -2.25,-1.65 -3.61,-1.94zm4.65 1.84c0.05,1.59 0.62,3.13 0.42,4.73 -1.25,-0.73 -2.5,-1.52 -3.89,-1.98 0.33,1.36 0.97,2.65 1.83,3.75 1.11,0.91 2.64,0.89 3.93,1.41 0.21,-1.49 1.37,-2.9 0.84,-4.43 -0.83,-1.33 -1.89,-2.53 -3.13,-3.48zm3.83 3.2c-0.23,1.43 -0.25,2.89 -0.66,4.29 -0.3,0.92 -0.03,1.86 0.13,2.78 -0.49,-0.61 -0.88,-1.34 -1.61,-1.69 -1.36,-0.71 -2.77,-1.34 -4.22,-1.84 0.6,1.69 1.41,3.38 2.71,4.65 0.85,0.85 2.08,0.92 3.2,1.09 -0.73,-0.54 -1.43,-1.13 -2.07,-1.77 0.92,0.42 1.81,0.97 2.86,0.97 0.25,-0.89 0.51,-1.77 0.77,-2.66 -0.05,0.95 -0.04,1.91 -0.01,2.86 1.55,-1.29 1.69,-3.57 0.95,-5.33 -0.51,-1.2 -1.02,-2.5 -2.05,-3.35zm3.51 5.68c-0.62,1.4 -1.1,2.87 -1.81,4.23 -0.63,1.2 -0.69,2.75 0.22,3.83 0.5,-0.73 0.95,-1.5 1.52,-2.18 -0.17,0.98 -0.63,1.87 -1.09,2.74 0.58,-0.28 1.19,-0.56 1.59,-1.1 1.06,-1.19 1,-2.95 0.76,-4.43 -0.32,-1.05 -0.41,-2.25 -1.19,-3.09zm-8.1 3.01c0.37,1.4 0.93,2.75 1.72,3.95 0.79,1.16 2.15,2.08 3.6,1.87 -0.63,-0.57 -1.28,-1.13 -1.79,-1.82 0.75,0.46 1.51,0.94 2.4,1.07 -0.11,-1.1 -0.44,-2.34 -1.48,-2.93 -1.41,-0.85 -2.93,-1.52 -4.45,-2.14zm10.77 1.64c-0.64,1.28 -1.19,2.61 -1.95,3.83 -0.41,0.71 -0.91,1.39 -1.17,2.18 -0.29,1.13 -0.19,2.32 -0.1,3.47 0.98,-0.75 1.78,-1.71 2.29,-2.84 -0.11,1.26 -0.88,2.28 -1.35,3.41 1.52,-0.61 2.88,-1.85 3.11,-3.54 0.31,-2.17 0.1,-4.51 -0.83,-6.51zm-10.46 2.75c0.53,2.25 0.92,4.81 2.79,6.38 0.7,0.67 1.7,0.82 2.61,1.02 -0.76,-0.78 -1.47,-1.61 -2.02,-2.55 0.82,0.71 1.67,1.4 2.66,1.87 0.02,-0.93 -0.08,-1.88 -0.47,-2.73 -0.55,-0.83 -1.35,-1.44 -2.16,-1.98 -1.1,-0.73 -2.2,-1.49 -3.41,-2.01zm10.06 7.13c-0.82,1.03 -1.82,1.94 -2.47,3.1 -0.44,1.03 -0.4,2.17 -0.46,3.27 0.89,-0.42 1.66,-1.02 2.46,-1.58 -0.3,0.93 -1.04,1.61 -1.64,2.35 2.06,0.05 3.67,-1.58 4.21,-3.47 0.57,-2.11 0.76,-4.4 0.19,-6.53 -0.87,0.86 -1.48,1.94 -2.29,2.86zm-9.52 -1.61c0.16,2.16 0.34,4.46 1.49,6.35 0.75,1.27 2.14,1.88 3.47,2.38 -0.78,-1.03 -1.59,-2.06 -2.03,-3.3 0.85,0.94 1.72,1.88 2.77,2.59 0.01,-0.96 0.14,-1.93 -0.08,-2.87 -0.46,-1.19 -1.5,-2 -2.42,-2.82 -1.02,-0.83 -2.02,-1.72 -3.2,-2.33zm8.41 9.7c-1.61,0.56 -2.78,2.15 -2.74,3.86 0.74,-0.02 1.49,-0.09 2.21,-0.3 1.36,-0.33 2.9,-0.42 4.03,-1.33 0.84,-1.32 1.33,-2.86 1.51,-4.4 -1.71,0.61 -3.29,1.55 -5.01,2.17zm-9.52 -3.05c0.18,1.25 0.26,2.6 0.89,3.71 1.11,0.94 2.51,1.45 3.7,2.27 0.52,0.35 1.09,0.6 1.67,0.82 0.13,-0.9 0.27,-1.85 -0.05,-2.73 -0.39,-0.89 -1.3,-1.35 -2.07,-1.84 -1.37,-0.77 -2.68,-1.65 -4.14,-2.23zm-0.74 3.38c0.28,2.28 0.21,4.82 1.67,6.74 0.75,1.03 2.01,1.44 3.23,1.56 -0.66,-0.89 -1.53,-1.67 -1.74,-2.81 0.81,0.87 1.73,1.64 2.82,2.15 0.1,-1.32 0.27,-2.91 -0.79,-3.91 -1.55,-1.47 -3.42,-2.55 -5.19,-3.73zm10.21 4.07c-0.77,0.26 -1.61,0.46 -2.18,1.08 -0.69,0.74 -1.13,1.67 -1.54,2.58 1.28,0.26 2.56,-0.03 3.73,-0.56 -0.92,0.94 -2.2,1.31 -3.34,1.88 1.41,0.78 3.32,0.97 4.59,-0.17 1.91,-1.76 2.94,-4.24 3.79,-6.64 -1.68,0.64 -3.34,1.31 -5.05,1.83zm-35.65 -41.06c0.66,1.61 1.33,3.22 2.18,4.75 0.29,0.6 0.9,0.92 1.43,1.29 1.18,0.79 2.24,1.82 2.86,3.11 0.43,1.32 0.3,2.74 0.29,4.1 -1.82,-0.63 -3.8,-1.78 -4.32,-3.78 -0.54,-1.31 -0.34,-2.74 -0.48,-4.11 -0.71,-1.76 -1.56,-3.48 -1.96,-5.36zm7.44 0.94c0.52,1.18 0.98,2.42 0.99,3.72 0.08,1.21 -0.12,2.44 0.08,3.65 0.76,1.31 1.8,2.53 2.08,4.07 0.24,1.56 -0.46,3.04 -0.94,4.48 -1.29,-1.1 -2.19,-2.81 -2.13,-4.51 0.53,-2.88 0.83,-5.81 0.64,-8.73 -0.08,-0.93 -0.46,-1.79 -0.72,-2.68zm-10.17 8.09c1.03,0.76 1.9,1.74 3.07,2.3 1.67,0.81 3.39,1.53 5.13,2.16 1.73,0.56 2.55,2.33 3.26,3.84 -1.71,-0.13 -3.65,-0.15 -4.94,-1.45 -1.13,-0.99 -1.59,-2.45 -2.33,-3.7 -1.49,-0.91 -3.25,-1.57 -4.19,-3.15zm16.15 0.62c1.43,2.03 1.75,4.53 2.24,6.89 0.24,1.15 0.06,2.33 0.17,3.49 0.83,1.51 2.15,2.87 2.27,4.68 0.25,1.58 -0.39,3.1 -1.11,4.47 -0.16,0.01 -0.46,0.03 -0.61,0.03 -0.86,-1.21 -1.4,-2.67 -1.5,-4.15 0.64,-3.33 0.99,-6.82 0.11,-10.14 -0.2,-1.84 -0.8,-3.59 -1.57,-5.27zm-16.47 1.41c2.19,2.84 4.91,5.34 8.17,6.9 1.42,0.76 2.96,1.27 4.46,1.84 1.63,0.7 2.46,2.4 3.1,3.95 -1.41,-0.11 -2.84,-0.34 -4.12,-0.95 -1.66,-0.96 -2.37,-2.81 -3.32,-4.37 -1.5,-0.96 -3.12,-1.74 -4.5,-2.88 -1.66,-1.11 -2.78,-2.81 -3.79,-4.49zm14.66 3.21c0.26,0.91 0.15,1.86 0.2,2.79 0.05,-0.78 0.06,-1.55 0.1,-2.32 1.18,0.34 1.59,1.66 2.11,2.64 1,1.88 0.35,4.26 -0.94,5.83 -0.85,-1.35 -1.87,-2.81 -1.71,-4.49 0.12,-1.48 0.14,-2.96 0.24,-4.45zm-11.03 3.49c1.69,1.68 3.39,3.38 5.44,4.63 1.33,0.79 2.69,1.54 4.08,2.23 1.33,0.66 2.95,0.89 3.98,2.05 0.9,0.86 1.36,2.04 1.63,3.24 -2.19,-0.08 -4.56,-0.87 -5.69,-2.87 -0.89,-1.08 -0.93,-2.86 -2.37,-3.4 -2.8,-1.33 -5.19,-3.41 -7.07,-5.88zm20.23 2.94c2.13,3.95 2.46,8.69 1.75,13.06 -0.13,0.97 0.55,1.78 0.76,2.68 0.3,1.27 0.78,2.61 0.36,3.9 -0.41,1.81 -1.82,3.21 -3.33,4.18 -0.12,-1.4 -0.35,-2.81 -0.17,-4.21 0.41,-2.04 1.78,-3.77 1.99,-5.88 0.97,-4.57 0.42,-9.43 -1.36,-13.73zm-17.39 2.28c1.1,1.01 1.96,2.27 3.13,3.21 1.9,1.71 4.09,3.04 6.25,4.4 1.45,0.92 3.3,1.26 4.42,2.65 0.89,1.03 1.1,2.43 1.34,3.73 -1.39,-0.42 -2.85,-0.84 -4.04,-1.71 -1.54,-1.23 -1.99,-3.23 -2.76,-4.95 -3.21,-1.9 -6.25,-4.19 -8.34,-7.33zm15.65 4.17c0.14,-0.04 0.43,-0.11 0.58,-0.15 1.05,1.82 2.11,3.89 1.72,6.05 -0.37,1.37 -1.08,2.65 -2.02,3.71 -1.14,-1.83 -1.71,-4.19 -0.95,-6.27 0.38,-1.08 0.4,-2.24 0.67,-3.34zm-5.79 8.61c1.18,0.56 2.14,1.47 3.2,2.22 0.95,0.72 2.05,1.31 2.68,2.34 0.67,1.3 0.84,2.78 0.65,4.21 -1.23,-0.68 -2.44,-1.44 -3.43,-2.45 -1.25,-1.43 -1.62,-3.39 -1.8,-5.23 -0.47,-0.32 -0.93,-0.67 -1.3,-1.09zm10.57 6.31c1.1,1.62 0.75,3.71 0.27,5.49 -0.51,2.11 -2.59,3.34 -4.52,3.95 0.28,-1.72 0.31,-3.59 1.42,-5.05 1.04,-1.4 2.17,-2.75 2.83,-4.39zm-7.87 0.77c1.48,1.49 3.62,2.97 3.55,5.3 0.07,1.07 -0.12,2.14 -0.53,3.13 -1.62,-1.38 -3.26,-3.24 -3.2,-5.51 -0.05,-0.98 0.02,-1.96 0.18,-2.92zm2.51 10.08c0.18,-0.42 0.27,-0.97 0.81,-1.04 -1.52,5.5 -5.06,10.24 -9.25,14.02 -0.11,-0.19 -0.33,-0.56 -0.44,-0.75 1.09,-1.36 2.46,-2.45 3.59,-3.77 2.19,-2.51 4.18,-5.29 5.29,-8.46zm-32.08 -25.62c1.11,-0.7 2.4,-0.96 3.65,-1.27 1.52,-0.26 3.2,-0.23 4.59,0.54 0.49,0.25 0.83,0.7 1.13,1.15 -0.75,-0.37 -1.45,-0.89 -2.31,-0.99 -1.42,-0.21 -2.94,-0.16 -4.28,0.42 0.98,0.33 1.98,0.61 2.92,1.06 0.7,0.34 1.49,0.43 2.25,0.56 -1.05,0.21 -2.16,0.06 -3.14,-0.37 -1.25,-0.54 -2.59,-0.82 -3.94,-0.91 -0.3,-0.02 -0.59,-0.09 -0.87,-0.19zm6.71 -2.01c1.05,-0.18 2.11,0.04 3.15,0.23 1.48,0.38 3,0.93 4.04,2.09 0.53,0.7 0.97,1.57 0.84,2.47 -0.37,-0.71 -0.62,-1.53 -1.27,-2.04 -1.2,-1.04 -2.74,-1.52 -4.26,-1.83 0.58,0.72 1.28,1.34 1.81,2.09 0.43,0.59 1,1.05 1.5,1.56 -1.24,-0.35 -2.09,-1.38 -2.87,-2.34 -0.83,-0.94 -2.05,-1.38 -2.94,-2.23zm-7.29 4.69c1.51,-1.15 3.63,-1.96 5.43,-1 -1.2,-0.09 -2.47,0.01 -3.55,0.59 -0.82,0.55 -1.69,1.06 -2.24,1.9 0.97,-0.03 1.92,-0.25 2.87,-0.43 1.11,-0.23 2.1,-0.8 3.14,-1.23 -0.68,0.64 -1.44,1.24 -2.3,1.64 -1.57,0.54 -3.24,0.75 -4.86,1.15 -0.32,0.09 -0.65,0.08 -0.97,0.06 0.55,-1.11 1.55,-1.9 2.48,-2.68zm3.79 2.54c0.76,-0.86 1.49,-1.74 2.36,-2.48 0.65,-0.57 1.56,-0.52 2.37,-0.51 -0.66,0.29 -1.47,0.26 -1.99,0.81 -0.63,0.62 -1.42,1.18 -1.74,2.03 0.58,-0.13 1.15,-0.27 1.73,-0.37 1,-0.19 1.89,-0.68 2.83,-1.02 -0.22,0.45 -0.62,0.79 -1.06,1.03 -1.58,0.94 -3.45,1.11 -5.19,1.62 0.08,-0.45 0.41,-0.78 0.69,-1.11zm10.23 -6.12c0.66,-0.02 1.21,0.37 1.77,0.66 1.73,1 3.4,2.38 4.08,4.31 0.28,0.75 0.2,1.59 -0.15,2.3 0.05,-2.33 -1.68,-4.27 -3.59,-5.39 0.19,0.83 0.59,1.6 0.75,2.44 0.16,0.79 0.56,1.49 0.98,2.17 -0.6,-0.46 -1.12,-1.05 -1.38,-1.78 -0.4,-1.12 -0.8,-2.25 -1.44,-3.26 -0.31,-0.5 -0.7,-0.95 -1.02,-1.45zm-4.83 5.14c0.7,-0.57 1.43,-1.17 2.33,-1.39 0.61,-0.14 1.21,0.09 1.75,0.36 -0.5,-0.03 -1.01,-0.15 -1.5,-0.03 -1,0.35 -1.83,1.03 -2.58,1.77 1.7,0.1 3.47,0.28 5.08,-0.36 -0.43,0.4 -0.96,0.66 -1.48,0.94 0.07,0.03 0.19,0.1 0.26,0.14 0.93,-0.23 1.85,-0.68 2.84,-0.56 0.61,0.11 1.13,0.46 1.61,0.83 -1.39,-0.65 -3,-0.34 -4.34,0.26 0.8,0.42 1.64,0.75 2.47,1.11 0.75,0.32 1.57,0.35 2.36,0.52 -1.3,0.48 -2.71,0.18 -3.93,-0.37 -0.89,-0.4 -1.9,-0.56 -2.69,-1.17 0.31,-0.18 0.61,-0.35 0.91,-0.54 -1.56,-0.11 -3.16,0.26 -4.71,-0.01 0.46,-0.57 1.03,-1.05 1.62,-1.5zm11.21 0.73c-0.06,-1.02 -0.67,-1.94 -0.57,-2.97 0.98,0.73 1.77,1.68 2.42,2.7 0.98,1.3 1.69,2.9 1.62,4.55 -0.02,0.68 -0.29,1.34 -0.77,1.83 0.18,-0.96 0.33,-1.97 -0.03,-2.91 -0.3,-1.4 -1.23,-2.53 -1.99,-3.71 -0.11,1.03 0.07,2.06 -0.05,3.08 -0.11,0.79 0.21,1.52 0.39,2.27 -0.43,-0.63 -0.87,-1.3 -0.93,-2.07 -0.06,-0.92 0.05,-1.85 -0.09,-2.77zm-6.15 3.5c0.85,-0.31 1.75,-0.1 2.62,-0.07 1,0.08 2.1,0.02 2.94,0.66 0.37,0.21 0.57,0.58 0.77,0.94 -1.17,-0.96 -2.77,-1.07 -4.22,-1.01 0.63,0.9 1.51,1.55 2.37,2.2 0.62,0.51 1.42,0.67 2.1,1.07 -0.76,0.09 -1.49,-0.16 -2.23,-0.24 0.98,0.73 2.3,0.78 3.28,1.51 0.67,0.43 0.98,1.21 1.28,1.91 -0.56,-0.46 -0.88,-1.2 -1.57,-1.49 -0.85,-0.4 -1.72,-0.73 -2.62,-1 0.88,1.77 2.02,3.51 3.81,4.46 -1.59,-0.12 -2.84,-1.3 -3.67,-2.58 -0.7,-0.93 -1.3,-1.93 -1.87,-2.95 0.49,-0.12 0.95,0.14 1.41,0.27 -0.15,-0.51 -0.77,-0.62 -1.14,-0.94 -1.14,-0.84 -2.2,-1.79 -3.26,-2.74zm9.95 0.25c0.03,-0.48 -0.08,-1.02 0.27,-1.41 1.1,1.95 2.03,4.09 2.05,6.36 -0.01,1.14 -0.32,2.49 -1.4,3.09 0.23,-0.61 0.56,-1.2 0.63,-1.86 0.21,-1.67 -0.26,-3.35 -0.98,-4.85 -0.28,1.03 -0.51,2.08 -0.86,3.09 -0.28,0.71 -0.08,1.48 -0.17,2.22 -0.34,-0.97 -0.52,-2.04 -0.2,-3.05 0.36,-1.17 0.65,-2.37 0.66,-3.59zm-4.93 7.72c0.01,-0.1 0.01,-0.3 0.02,-0.4 0.81,0.37 1.51,0.94 2.25,1.42 0.58,0.41 1.21,0.76 1.75,1.22 0.58,0.63 0.88,1.48 0.91,2.33 -0.34,-0.65 -0.57,-1.42 -1.22,-1.85 -0.77,-0.56 -1.53,-1.14 -2.38,-1.57 0.42,1.26 0.87,2.51 1.51,3.68 0.32,0.59 0.87,1.01 1.33,1.49 -1.14,-0.3 -2.03,-1.21 -2.51,-2.26 -0.62,-1.32 -1.23,-2.66 -1.66,-4.06zm6.78 0.1c0.48,-1.04 0.7,-2.18 1.17,-3.22 0.6,1.37 0.78,2.9 0.89,4.39 0.08,1.56 -0.18,3.28 -1.3,4.45 -0.29,0.34 -0.73,0.48 -1.12,0.65 1.85,-1.67 1.78,-4.41 1.36,-6.66 -0.44,0.52 -0.68,1.17 -1.01,1.76 -0.31,0.57 -0.72,1.11 -0.88,1.75 -0.12,0.45 -0.17,0.92 -0.24,1.38 -0.23,-0.66 -0.16,-1.36 -0.01,-2.03 0.17,-0.91 0.83,-1.61 1.14,-2.47zm-1.58 9.46c0.1,-0.62 -0.01,-1.27 0.25,-1.86 0.05,0.21 0.08,0.42 0.09,0.63 -0.13,3.98 -1.17,8.03 -3.45,11.34 -0.17,-0.08 -0.34,-0.17 -0.51,-0.25 2.12,-2.85 3.24,-6.35 3.62,-9.86z"/><circle fill="none" stroke="#fff" cx="50" cy="50" r="44.79"/></svg>